<?xml version="1.0" standalone="no"?>
<!DOCTYPE svg PUBLIC "-//W3C//DTD SVG 20010904//EN"
 "http://www.w3.org/TR/2001/REC-SVG-20010904/DTD/svg10.dtd">
<svg version="1.0" xmlns="http://www.w3.org/2000/svg"
 width="840.000000pt" height="840.000000pt" viewBox="0 0 840.000000 840.000000"
 preserveAspectRatio="xMidYMid meet">
<metadata>
Created by potrace 1.11, written by Peter Selinger 2001-2013
</metadata>
<g transform="translate(0.000000,840.000000) scale(0.100000,-0.100000)"
fill="#000000" stroke="none">
<path d="M2959 7966 c-104 -36 -167 -75 -256 -160 -216 -204 -357 -534 -404
-946 -17 -151 -7 -483 20 -633 69 -389 207 -702 405 -914 451 -484 1030 -274
1271 462 73 224 100 434 92 724 -8 288 -58 542 -152 773 -60 146 -83 189 -164
309 -137 205 -292 332 -475 388 -97 30 -246 29 -337 -3z"/>
<path d="M5755 7719 c-379 -58 -774 -416 -1021 -924 -294 -605 -314 -1259 -49
-1630 117 -164 273 -245 474 -245 126 0 217 22 347 85 489 236 902 884 989
1548 85 659 -165 1142 -607 1171 -40 3 -100 1 -133 -5z"/>
<path d="M790 6663 c-14 -2 -47 -11 -75 -20 -253 -80 -425 -323 -490 -692 -18
-102 -21 -409 -5 -521 62 -444 238 -850 506 -1170 135 -161 282 -278 448 -355
131 -62 211 -79 343 -73 127 6 193 27 296 96 177 116 313 385 346 685 55 491
-113 1088 -428 1517 -74 101 -248 279 -345 352 -184 139 -420 211 -596 181z"/>
<path d="M7440 5843 c-301 -50 -630 -267 -891 -586 -285 -348 -452 -716 -504
-1114 -57 -437 71 -776 346 -912 103 -51 221 -75 324 -65 183 17 408 107 589
235 111 79 313 273 405 388 404 507 584 1168 441 1614 -93 291 -307 450 -600
445 -47 0 -96 -3 -110 -5z"/>
<path d="M3810 4865 c-185 -49 -375 -166 -514 -315 -31 -34 -116 -134 -188
-223 -277 -340 -517 -598 -698 -749 -159 -133 -230 -175 -545 -324 -247 -117
-305 -150 -420 -239 -232 -180 -345 -367 -436 -723 -44 -174 -48 -288 -15
-476 55 -311 148 -498 338 -681 181 -175 416 -301 698 -374 196 -50 300 -61
655 -71 182 -5 395 -14 475 -20 445 -34 1206 -141 1740 -245 164 -32 202 -36
336 -36 476 2 872 161 1096 440 109 136 181 293 214 468 26 140 16 373 -24
524 -37 139 -76 239 -149 383 -65 126 -83 149 -344 431 -261 283 -320 351
-425 491 -180 238 -408 598 -659 1043 -108 191 -172 277 -315 425 -149 153
-232 210 -387 262 -64 22 -101 27 -208 30 -115 4 -141 1 -225 -21z"/>
</g>
</svg>
